<svg xmlns:dc="http://purl.org/dc/elements/1.1/" xmlns:cc="http://creativecommons.org/ns#" xmlns:rdf="http://www.w3.org/1999/02/22-rdf-syntax-ns#" xmlns:svg="http://www.w3.org/2000/svg" xmlns="http://www.w3.org/2000/svg" xmlns:sodipodi="http://sodipodi.sourceforge.net/DTD/sodipodi-0.dtd" xmlns:inkscape="http://www.inkscape.org/namespaces/inkscape" viewBox="0 0 12.7 15.875" version="1.1" x="0px" y="0px"><g transform="translate(0,-284.29998)"><path style="" d="m 3.0802,292.83767 a 0.77283405,0.77283405 0 0 1 -1.2216,0 1.6815364,1.6815364 0 0 0 -1.3294,-0.65174 v 0.26458 a 1.4169531,1.4169531 0 0 1 1.1201,0.5492 1.0374174,1.0374174 0 0 0 1.6402,0 1.4169531,1.4169531 0 0 1 2.2401,0 1.0374174,1.0374174 0 0 0 1.6402,0 1.4169531,1.4169531 0 0 1 2.2409,0 1.0374174,1.0374174 0 0 0 1.6402,0 1.4169531,1.4169531 0 0 1 1.12,-0.5492 v -0.26458 a 1.6815364,1.6815364 0 0 0 -1.3293,0.65174 0.77283405,0.77283405 0 0 1 -1.2223,0 1.6815364,1.6815364 0 0 0 -2.6581,0 0.77283405,0.77283405 0 0 1 -1.2223,0 1.6815364,1.6815364 0 0 0 -2.6587,0 z" fill="#000000" stroke="none"/><path style="" d="m 3.0802,291.40844 a 0.77283405,0.77283405 0 0 1 -1.2216,0 1.6815364,1.6815364 0 0 0 -1.3294,-0.65175 v 0.26459 a 1.4169531,1.4169531 0 0 1 1.1201,0.54919 1.0374174,1.0374174 0 0 0 1.6402,0 1.4169531,1.4169531 0 0 1 2.2401,0 1.0374174,1.0374174 0 0 0 1.6402,0 1.4169531,1.4169531 0 0 1 2.2409,0 1.0374174,1.0374174 0 0 0 1.6402,0 1.4169531,1.4169531 0 0 1 1.12,-0.54919 v -0.26459 a 1.6815364,1.6815364 0 0 0 -1.3293,0.65175 0.77283405,0.77283405 0 0 1 -1.2223,0 1.6815364,1.6815364 0 0 0 -2.6581,0 0.77283405,0.77283405 0 0 1 -1.2223,0 1.6815364,1.6815364 0 0 0 -2.6587,0 z" fill="#000000" stroke="none"/><path style="" d="m 3.0802,289.97921 a 0.77283405,0.77283405 0 0 1 -1.2216,0 1.6815364,1.6815364 0 0 0 -1.3294,-0.65175 v 0.26458 a 1.4169531,1.4169531 0 0 1 1.1201,0.5492 1.0374174,1.0374174 0 0 0 1.6402,0 1.4169531,1.4169531 0 0 1 2.2401,0 1.0374174,1.0374174 0 0 0 1.6402,0 1.4169531,1.4169531 0 0 1 2.2409,0 1.0374174,1.0374174 0 0 0 1.6402,0 1.4169531,1.4169531 0 0 1 1.12,-0.5492 v -0.26458 a 1.6815364,1.6815364 0 0 0 -1.3293,0.65175 0.77283405,0.77283405 0 0 1 -1.2223,0 1.6815364,1.6815364 0 0 0 -2.6581,0 0.77283405,0.77283405 0 0 1 -1.2223,0 1.6815364,1.6815364 0 0 0 -2.6587,0 z" fill="#000000" stroke="none"/><path style="" d="m 3.0802,288.54997 a 0.77283405,0.77283405 0 0 1 -1.2216,0 1.6815364,1.6815364 0 0 0 -1.3294,-0.65175 v 0.26459 a 1.4169531,1.4169531 0 0 1 1.1201,0.54919 1.0374174,1.0374174 0 0 0 1.6402,0 1.4169531,1.4169531 0 0 1 2.2401,0 1.0374174,1.0374174 0 0 0 1.6402,0 1.4169531,1.4169531 0 0 1 2.2409,0 1.0374174,1.0374174 0 0 0 1.6402,0 1.4169531,1.4169531 0 0 1 1.12,-0.54919 v -0.26459 a 1.6815364,1.6815364 0 0 0 -1.3293,0.65175 0.77283405,0.77283405 0 0 1 -1.2223,0 1.6815364,1.6815364 0 0 0 -2.6581,0 0.77283405,0.77283405 0 0 1 -1.2223,0 1.6815364,1.6815364 0 0 0 -2.6587,0 z" fill="#000000" stroke="none"/></g><text x="0" y="27.7" fill="#000000" font-size="5px" font-weight="bold" font-family="'Helvetica Neue', Helvetica, Arial-Unicode, Arial, Sans-serif">Created by Phạm Thanh Lộc</text><text x="0" y="32.7" fill="#000000" font-size="5px" font-weight="bold" font-family="'Helvetica Neue', Helvetica, Arial-Unicode, Arial, Sans-serif">from the Noun Project</text></svg>