<svg xmlns="http://www.w3.org/2000/svg" xmlns:xlink="http://www.w3.org/1999/xlink" viewBox="0 0 42 52.5" version="1.1" x="0px" y="0px"><title>precipitation</title><desc>Created with Sketch.</desc><g stroke="none" stroke-width="1" fill="none" fill-rule="evenodd"><g transform="translate(-4.000000, -4.000000)" fill="#000000" fill-rule="nonzero"><path d="M12,29.1499023 C8.26796797,29.1499023 5.25,26.0581263 5.25,22.2531651 C5.25,19.7678137 7.30549747,15.9126716 11.4038886,10.5448614 L12,9.7641128 L12.5961114,10.5448614 C16.6945025,15.9126716 18.75,19.7678137 18.75,22.2531651 C18.75,26.0581263 15.732032,29.1499023 12,29.1499023 Z M6.75,22.2531651 C6.75,25.2377024 9.10461503,27.6499023 12,27.6499023 C14.895385,27.6499023 17.25,25.2377024 17.25,22.2531651 C17.25,20.3189287 15.503576,16.9423006 12,12.2448926 C8.49642404,16.9423006 6.75,20.3189287 6.75,22.2531651 Z M25,43.1499023 C21.267968,43.1499023 18.25,40.0581263 18.25,36.2531651 C18.25,33.7678137 20.3054975,29.9126716 24.4038886,24.5448614 L25,23.7641128 L25.5961114,24.5448614 C29.6945025,29.9126716 31.75,33.7678137 31.75,36.2531651 C31.75,40.0581263 28.732032,43.1499023 25,43.1499023 Z M19.75,36.2531651 C19.75,39.2377024 22.104615,41.6499023 25,41.6499023 C27.895385,41.6499023 30.25,39.2377024 30.25,36.2531651 C30.25,34.3189287 28.503576,30.9423006 25,26.2448926 C21.496424,30.9423006 19.75,34.3189287 19.75,36.2531651 Z M38,29.1499023 C34.267968,29.1499023 31.25,26.0581263 31.25,22.2531651 C31.25,19.7678137 33.3054975,15.9126716 37.4038886,10.5448614 L38,9.7641128 L38.5961114,10.5448614 C42.6945025,15.9126716 44.75,19.7678137 44.75,22.2531651 C44.75,26.0581263 41.732032,29.1499023 38,29.1499023 Z M32.75,22.2531651 C32.75,25.2377024 35.104615,27.6499023 38,27.6499023 C40.895385,27.6499023 43.25,25.2377024 43.25,22.2531651 C43.25,20.3189287 41.503576,16.9423006 38,12.2448926 C34.496424,16.9423006 32.75,20.3189287 32.75,22.2531651 Z"/></g></g><text x="0" y="57" fill="#000000" font-size="5px" font-weight="bold" font-family="'Helvetica Neue', Helvetica, Arial-Unicode, Arial, Sans-serif">Created by  Boris</text><text x="0" y="62" fill="#000000" font-size="5px" font-weight="bold" font-family="'Helvetica Neue', Helvetica, Arial-Unicode, Arial, Sans-serif">from the Noun Project</text></svg>