<svg xmlns:dc="http://purl.org/dc/elements/1.1/" xmlns:cc="http://creativecommons.org/ns#" xmlns:rdf="http://www.w3.org/1999/02/22-rdf-syntax-ns#" xmlns:svg="http://www.w3.org/2000/svg" xmlns="http://www.w3.org/2000/svg" xmlns:sodipodi="http://sodipodi.sourceforge.net/DTD/sodipodi-0.dtd" xmlns:inkscape="http://www.inkscape.org/namespaces/inkscape" version="1.1" x="0px" y="0px" viewBox="0 0 100 125"><g transform="translate(0,-952.36218)"><path style="text-indent:0;text-transform:none;direction:ltr;block-progression:tb;baseline-shift:baseline;color:#000000;enable-background:accumulate;" d="m 70.926801,969.36218 c -9.674786,0 -16.871873,7.97483 -16.980279,17.96875 -0.03147,2.90127 0,4.0522 0,5.03125 -0.0075,0.52831 0.471088,1.01424 0.99884,1.01424 0.527752,0 1.006303,-0.48593 0.99884,-1.01424 0,-1.02091 -0.03125,-2.11875 0,-5 0.09828,-9.05998 6.396593,-16 14.982599,-16 l 0.998839,0 c 8.586049,0 15.981439,7.02241 15.981439,16 0,8.97759 -7.395396,16.00002 -15.981439,16.00002 l -56.933874,0 c -0.5277,-0.01 -1.013065,0.4716 -1.013065,1 0,0.5283 0.485365,1.0075 1.013065,1 l 56.933874,0 c 9.674747,0 17.979119,-7.92259 17.979119,-18.00002 0,-10.07743 -8.304378,-18 -17.979119,-18 z m -40.952436,10 c -4.743054,0 -8.989559,3.94978 -8.989559,9 l 0,2 c -0.0075,0.52831 0.471087,1.01424 0.998839,1.01424 0.527752,0 1.006304,-0.48593 0.99884,-1.01424 l 0,-2 c 0,-3.91686 3.366828,-7 6.99188,-7 l 0.99884,0 c 3.625098,1.1e-4 6.991879,3.08314 6.991879,7 0,3.94804 -3.148332,7 -6.773383,7 l -22.1929743,0 c -0.5276997,-0.007 -1.0130654,0.47164 -1.0130654,1 0,0.52837 0.4853657,1.00747 1.0130654,1 l 22.1929743,0 c 4.743053,0 8.771063,-3.98096 8.771063,-9 0,-5.05022 -4.246553,-8.99985 -8.989559,-9 z M 8.8114442,1011.3622 c -0.5229913,0.049 -0.9542286,0.5701 -0.9051982,1.0937 0.04903,0.5236 0.5694893,0.9554 1.0924807,0.9063 l 70.9176333,0 c 5.550849,0 9.988399,4.4427 9.988399,10 0,5.5573 -4.43755,10 -9.988399,10 l -0.99884,0 c -5.550806,0 -10.050706,-4.4566 -9.988399,-10 0.01101,-0.9789 0,-1.9349 0,-3 0.0075,-0.5283 -0.471088,-1.0143 -0.99884,-1.0143 -0.527752,0 -1.006303,0.486 -0.99884,1.0143 0,1.0785 0.01067,2.0198 0,2.9687 -0.07467,6.6437 5.363024,12.0313 11.986079,12.0313 l 0.99884,0 c 6.623009,0 11.986079,-5.3693 11.986079,-12 0,-6.6307 -5.36307,-12 -11.986079,-12 -23.697618,0 -47.420895,0 -71.1049158,0 z m 11.9860788,8 c -0.522992,0.049 -0.954229,0.5701 -0.905199,1.0937 0.04903,0.5236 0.56949,0.9554 1.092482,0.9063 l 16.980278,0 c 0.5277,0.01 1.013065,-0.4717 1.013065,-1 0,-0.5284 -0.485365,-1.0075 -1.013065,-1 -5.716457,0 -11.46551,0 -17.167561,0 z" fill="#000000" fill-opacity="1" stroke="none" marker="none" visibility="visible" display="inline" overflow="visible"/></g><text x="0" y="115" fill="#000000" font-size="5px" font-weight="bold" font-family="'Helvetica Neue', Helvetica, Arial-Unicode, Arial, Sans-serif">Created by rivda</text><text x="0" y="120" fill="#000000" font-size="5px" font-weight="bold" font-family="'Helvetica Neue', Helvetica, Arial-Unicode, Arial, Sans-serif">from the Noun Project</text></svg>